<?xml version="1.0" standalone="no"?>
<!DOCTYPE svg PUBLIC "-//W3C//DTD SVG 20010904//EN"
 "http://www.w3.org/TR/2001/REC-SVG-20010904/DTD/svg10.dtd">
<svg version="1.0" xmlns="http://www.w3.org/2000/svg"
 width="700.000000pt" height="700.000000pt" viewBox="0 0 700.000000 700.000000"
 preserveAspectRatio="xMidYMid meet">
<metadata>
Created by potrace 1.11, written by Peter Selinger 2001-2013
</metadata>
<g transform="translate(0.000000,700.000000) scale(0.100000,-0.100000)"
fill="#000000" stroke="none">
<path d="M3590 6967 c-139 -47 -232 -127 -300 -257 -39 -77 -43 -80 -76 -80
-44 0 -216 -26 -317 -47 -71 -15 -79 -15 -94 0 -15 14 -20 13 -61 -19 -25 -19
-50 -34 -57 -34 -6 0 -49 16 -94 36 -157 68 -283 55 -366 -38 -43 -47 -55 -76
-64 -148 -6 -50 -9 -56 -45 -76 -36 -20 -41 -21 -93 -7 -30 8 -73 13 -96 11
-35 -3 -27 -5 46 -17 l89 -13 -59 -34 c-35 -20 -72 -34 -93 -34 -36 0 -80 -23
-80 -41 0 -5 11 -2 25 7 13 9 30 14 37 12 7 -3 -7 -17 -31 -32 -61 -39 -218
-161 -267 -208 l-41 -39 -46 22 c-44 22 -49 22 -79 7 -18 -9 -41 -29 -51 -46
-17 -31 -17 -31 13 -65 36 -42 37 -47 5 -77 l-25 -24 -48 45 c-26 25 -58 54
-72 64 l-25 20 25 -30 c13 -17 44 -48 68 -70 l44 -40 -33 -42 c-19 -23 -38
-42 -44 -42 -5 -1 -23 12 -40 29 -31 30 -201 110 -235 110 -22 0 -134 -65
-152 -88 -11 -14 -9 -14 8 1 11 9 23 17 27 17 3 0 29 14 57 30 28 17 56 30 63
30 11 0 76 -43 189 -126 l57 -42 -30 -38 c-17 -22 -34 -45 -38 -52 -6 -10 -15
-10 -48 2 -40 14 -43 14 -68 -10 -20 -19 -25 -31 -21 -49 5 -19 3 -23 -8 -19
-36 14 -26 79 15 108 13 8 20 19 16 23 -11 10 -60 -30 -75 -61 -18 -36 -9 -80
28 -136 28 -43 29 -45 13 -70 -10 -14 -36 -57 -58 -96 l-41 -71 -67 33 c-37
19 -67 32 -67 30 0 -2 27 -21 60 -42 33 -22 60 -42 60 -46 0 -17 -23 -18 -47
-3 -15 10 -49 26 -77 35 -49 18 -51 18 -77 -1 -35 -24 -59 -77 -59 -127 0 -37
5 -45 54 -84 29 -24 61 -48 71 -53 17 -10 15 -17 -17 -100 -19 -50 -43 -112
-52 -138 -21 -57 -28 -57 -148 -7 -73 31 -79 32 -102 17 -38 -26 -71 -103 -70
-169 1 -111 98 -255 163 -242 38 8 45 -6 31 -70 l-11 -54 -62 -4 c-82 -5 -152
-40 -194 -96 -29 -39 -33 -51 -33 -108 0 -41 6 -77 16 -97 15 -29 103 -147
110 -147 1 0 -16 32 -39 72 -36 62 -42 81 -45 142 -3 61 -1 76 20 105 30 44
82 71 135 71 61 0 73 -7 73 -45 0 -54 -6 -60 -54 -57 -82 7 -106 -52 -58 -140
l32 -58 -25 -69 c-14 -38 -25 -73 -25 -79 0 -6 18 -21 40 -33 l40 -23 0 -71
c0 -40 -3 -113 -7 -164 l-6 -92 -38 6 c-46 8 -56 -5 -39 -55 11 -35 10 -46
-14 -117 -43 -123 -45 -112 34 -162 l70 -45 0 -116 c0 -65 3 -145 7 -180 6
-60 5 -63 -13 -55 -35 15 -84 17 -99 5 -21 -18 -19 -56 7 -101 20 -36 20 -43
9 -94 -7 -31 -11 -58 -9 -60 1 -2 30 -19 64 -38 l61 -36 12 -148 c7 -81 19
-192 27 -245 17 -119 17 -121 1 -112 -9 6 -9 5 0 -7 7 -9 24 -78 38 -155 34
-185 75 -314 145 -459 75 -155 137 -246 230 -342 138 -140 281 -233 455 -291
174 -59 227 -66 507 -68 243 -2 259 -3 287 -23 67 -48 154 -81 214 -81 69 0
101 15 150 69 32 36 48 75 49 126 0 6 31 24 69 42 59 27 74 30 99 21 17 -5 63
-8 103 -6 60 3 80 8 117 33 25 17 60 52 78 79 29 44 32 55 32 127 0 88 -5 83
92 92 26 3 70 17 99 31 45 24 53 25 68 13 9 -8 98 -85 199 -171 143 -123 187
-156 202 -151 22 7 26 25 8 43 -6 6 -9 14 -7 17 3 3 81 -71 173 -163 91 -92
163 -158 160 -148 -9 24 -17 29 162 -96 214 -149 334 -197 457 -184 159 16
299 144 323 296 l6 39 72 11 c172 28 318 77 453 151 70 38 73 39 124 28 68
-15 123 -8 192 24 68 31 135 96 168 162 20 43 24 64 24 147 l0 96 36 11 c49
15 148 80 185 123 94 107 125 276 77 413 -14 39 -13 41 14 63 67 55 97 88 133
144 62 95 75 145 74 278 -1 134 -19 193 -99 325 -47 77 -47 79 -31 104 10 14
32 55 49 91 30 62 32 71 31 175 -1 95 -5 119 -27 174 l-27 63 44 57 c50 64 75
112 101 190 15 45 17 75 12 165 -4 62 -14 133 -23 161 -19 55 -74 148 -108
181 -17 17 -77 99 -160 219 -7 9 1 35 24 82 28 56 35 83 38 149 8 152 -43 256
-214 434 -96 100 -113 123 -134 180 -100 282 -284 618 -449 821 l-70 87 46
108 c25 60 47 118 50 129 4 16 -19 37 -124 110 -70 49 -210 151 -311 227 -100
76 -185 138 -189 138 -3 0 22 -29 55 -64 58 -60 77 -96 50 -96 -28 0 -211 121
-329 217 -53 43 -75 56 -64 39 83 -126 -300 99 -585 345 -182 156 -444 227
-620 166z m-380 -395 c0 -5 -22 -19 -49 -31 -43 -21 -53 -22 -86 -11 -20 7
-33 15 -30 18 3 4 41 12 83 18 42 6 78 12 80 13 1 0 2 -3 2 -7z m-258 -61 c-2
-16 1 -38 7 -50 7 -11 9 -21 6 -21 -11 0 -96 73 -91 78 4 3 50 16 77 21 3 1 4
-12 1 -28z m-750 -284 c15 -23 51 -66 81 -96 l55 -53 -17 -39 c-9 -21 -20 -39
-24 -39 -17 0 -115 55 -204 115 l-94 63 68 38 c97 53 98 53 103 54 3 0 17 -19
32 -43z m-238 -102 c6 -17 4 -18 -18 -9 -20 8 -21 24 -2 24 8 0 16 -7 20 -15z
m-73 -99 c-17 -70 -75 -241 -87 -255 -2 -2 -47 22 -100 54 l-96 57 29 30 c35
38 264 211 270 205 2 -3 -5 -43 -16 -91z m-394 -308 c12 -13 29 -50 38 -83 9
-33 25 -91 37 -128 11 -37 19 -70 16 -72 -2 -2 -27 11 -55 30 -28 19 -53 30
-55 24 -4 -11 -149 92 -145 103 4 12 129 148 136 148 4 0 17 -10 28 -22z
m4247 -343 c120 -181 194 -320 277 -519 16 -38 29 -71 29 -74 0 -4 -71 64
-157 149 -87 85 -220 214 -295 286 l-138 132 44 26 c23 14 47 25 52 25 5 0 9
26 10 58 1 31 7 71 13 87 l13 30 39 -45 c22 -25 73 -94 113 -155z m-4192 -3
c-55 -8 -312 72 -312 97 0 4 14 26 31 49 l30 41 137 -92 c110 -74 132 -92 114
-95z m-436 -129 c7 -10 14 -23 14 -29 0 -6 36 -48 80 -92 71 -70 80 -84 80
-116 0 -21 -5 -36 -12 -36 -15 0 -260 108 -272 120 -13 13 72 170 91 170 3 0
12 -8 19 -17z m-272 -189 c34 -12 46 -21 44 -33 -2 -9 -13 -16 -26 -15 -23 1
-29 -15 -11 -33 7 -7 5 -23 -7 -52 -9 -22 -19 -41 -23 -41 -3 1 -21 21 -38 45
-38 51 -43 95 -13 125 24 24 16 24 74 4z m167 -13 c13 -10 35 -22 49 -26 34
-10 172 -86 167 -91 -4 -5 -288 46 -296 52 -2 2 2 10 8 18 11 13 18 12 58 -5
25 -11 48 -18 50 -16 9 10 -11 34 -42 51 -19 11 -35 23 -35 28 0 13 16 9 41
-11z m185 -444 c22 -41 12 -57 -36 -57 -22 0 -40 -4 -40 -8 0 -5 23 -41 50
-80 28 -39 50 -74 50 -77 0 -3 -42 31 -92 76 -51 44 -102 84 -113 89 -101 39
-174 48 -129 16 15 -11 13 -14 -14 -25 -26 -11 -35 -10 -70 8 l-41 21 34 92
c41 113 46 127 80 203 l27 60 140 -144 c76 -79 146 -157 154 -174z m2331 18
c12 -9 22 -29 25 -51 4 -32 0 -40 -36 -71 l-41 -35 41 20 c41 21 54 42 54 90
0 26 -5 26 67 7 31 -8 84 -15 117 -15 l59 0 189 -187 c154 -153 185 -189 168
-191 -12 -2 -37 8 -55 23 -34 26 -143 146 -164 182 -11 17 -11 17 -22 0 -9
-16 -19 -18 -56 -12 -43 6 -45 6 -38 -17 21 -68 94 -181 250 -388 140 -187
198 -261 201 -257 2 1 -1 19 -5 39 -7 28 -5 40 5 49 17 14 71 -28 105 -84 13
-22 34 -51 45 -65 21 -26 21 -26 3 -66 -26 -57 -24 -138 5 -209 23 -55 23 -58
6 -67 -25 -13 -51 -13 -30 0 12 8 11 10 -7 10 -23 0 -43 -19 -21 -21 50 -5
-90 -18 -191 -18 -111 -1 -122 1 -111 15 22 26 52 38 110 45 l55 6 -56 2 c-50
1 -59 -2 -96 -34 -40 -34 -44 -35 -121 -35 l-80 0 -12 31 c-19 45 -173 176
-250 213 -59 28 -74 31 -165 31 -93 0 -105 -2 -167 -33 -60 -29 -157 -117
-144 -129 2 -3 -4 -28 -13 -56 l-18 -52 -354 -3 c-227 -1 -373 2 -407 9 -195
40 -375 235 -398 431 l-6 56 73 -4 74 -4 -47 15 c-58 19 -62 35 -8 35 33 0 40
3 40 20 0 11 7 20 15 20 15 0 19 20 15 68 -2 27 -15 26 155 2 185 -26 285 -26
285 0 0 4 -9 10 -20 13 -11 3 -20 10 -20 17 0 7 8 9 21 5 11 -4 51 -4 89 0
l69 7 41 114 c28 74 43 133 44 167 l1 52 47 8 c47 9 48 8 101 -36 l53 -46 41
19 c50 22 49 22 58 93 l7 57 -45 0 c-26 0 -49 -5 -53 -12 -6 -9 -10 -5 -15 12
-16 57 -15 58 54 44 34 -8 88 -14 121 -14 94 0 231 43 265 83 13 16 2 19 -124
33 -109 12 -90 22 43 22 72 0 136 3 142 7 7 4 10 18 7 31 -5 28 1 30 30 9z
m-2765 -537 c18 5 76 -35 188 -131 40 -35 45 -44 45 -82 0 -31 11 -59 39 -106
51 -83 109 -166 170 -240 27 -33 46 -62 43 -65 -10 -10 -26 5 -158 159 -72 84
-164 190 -204 237 -41 47 -82 96 -93 109 l-18 24 -77 -43 -77 -42 0 36 c0 28
8 42 40 72 22 21 40 40 40 44 0 4 -11 12 -25 18 -26 12 -31 34 -18 81 6 24 7
24 51 -25 25 -27 49 -48 54 -46z m1078 -281 l65 -12 7 -60 c10 -74 30 -134 68
-204 23 -42 27 -57 18 -63 -9 -5 -42 23 -103 87 -49 53 -133 136 -185 186
l-95 90 80 -7 c44 -3 109 -11 145 -17z m2658 -89 c28 -14 27 -18 -10 -47 l-31
-25 -18 23 c-19 24 -25 52 -12 64 7 8 36 2 71 -15z m-3829 -289 c134 -107 360
-304 360 -314 1 -6 50 -60 111 -120 60 -60 108 -111 106 -113 -2 -1 -30 15
-62 38 -52 36 -101 50 -98 26 6 -35 889 -892 1004 -974 42 -30 130 -123 130
-137 0 -8 -56 30 -94 64 -21 19 -27 21 -23 9 4 -10 4 -18 1 -18 -3 0 -45 27
-92 60 -51 35 -122 97 -172 152 -47 50 -148 142 -225 204 -261 209 -533 520
-567 650 -10 36 -28 57 -111 131 -55 48 -130 121 -167 162 l-68 74 -66 -37
-66 -37 0 121 c0 81 4 120 11 120 6 0 46 -27 88 -61z m1666 -177 c35 -10 122
-17 295 -21 220 -5 241 -7 208 -19 -21 -8 -38 -16 -38 -18 0 -3 10 -18 22 -34
12 -16 19 -33 15 -36 -6 -7 -46 31 -63 61 -15 28 -34 9 -34 -34 0 -20 -7 -61
-16 -90 -15 -52 -15 -54 7 -77 19 -20 21 -29 13 -52 -9 -25 -6 -31 38 -74 49
-49 83 -64 119 -55 11 3 33 2 50 -3 37 -11 34 -6 -43 81 -61 70 -68 88 -42
110 14 11 42 -13 219 -192 230 -232 276 -293 283 -374 l4 -54 75 -52 c74 -51
200 -148 258 -200 142 -124 275 -250 549 -517 175 -172 322 -312 328 -312 5 0
6 9 3 20 -10 30 12 24 29 -9 25 -48 118 -124 270 -221 81 -51 153 -102 161
-114 9 -11 31 -39 50 -61 161 -188 289 -344 298 -362 16 -36 41 -30 33 8 -11
54 -94 156 -213 262 l-115 102 68 8 69 8 29 -38 c47 -61 178 -182 191 -177 7
3 39 -18 71 -47 33 -28 69 -58 82 -66 12 -9 22 -19 22 -23 0 -14 -137 -79
-228 -109 -90 -30 -233 -61 -277 -61 -19 0 -24 7 -29 43 -12 74 -90 215 -189
339 -184 229 -407 481 -660 742 -192 199 -456 450 -465 441 -2 -2 19 -30 47
-62 63 -70 95 -132 84 -161 -8 -20 -53 20 -418 361 -226 211 -540 510 -700
665 -179 174 -292 276 -297 269 -4 -7 -53 35 -130 112 -68 68 -114 120 -103
116 11 -4 43 -15 70 -23z m2113 -47 c16 -34 18 -45 8 -45 -19 0 -32 19 -41 58
-10 46 7 40 33 -13z m-161 19 c-15 -8 -33 -11 -40 -7 -8 5 -1 10 18 14 48 10
52 9 22 -7z m-1154 -44 c11 -91 112 -240 163 -240 9 0 14 -7 12 -17 -2 -10 -8
-18 -15 -18 -13 0 -210 175 -298 264 l-59 61 95 0 96 0 6 -50z m917 13 c1 -21
7 -55 14 -75 8 -21 12 -38 10 -38 -5 0 -114 138 -114 144 0 4 20 6 45 6 l45 0
0 -37z m124 -5 c3 -24 8 -56 12 -73 3 -16 0 -43 -6 -59 l-11 -29 -35 34 c-44
42 -74 98 -74 139 0 30 1 30 54 30 l53 0 7 -42z m-769 -208 c15 -17 16 -24 6
-47 l-12 -26 -29 34 c-16 19 -29 40 -30 47 0 19 45 14 65 -8z m64 -122 c19
-18 45 -48 59 -66 16 -21 31 -31 41 -27 13 4 26 -11 51 -58 30 -57 38 -65 78
-77 62 -18 147 -101 201 -194 23 -43 41 -80 38 -83 -3 -3 -34 15 -69 40 -56
40 -90 73 -238 232 -37 40 -190 229 -204 253 -14 23 10 12 43 -20z m-2044 -97
c47 -46 84 -86 82 -88 -8 -7 -164 128 -176 153 -17 39 -1 27 94 -65z m-715
-55 c299 -231 401 -320 555 -488 229 -248 585 -607 619 -625 l29 -15 -29 34
c-16 19 -90 100 -164 181 -126 135 -182 207 -163 207 15 0 638 -539 671 -582
19 -23 41 -42 51 -43 15 -1 94 -64 283 -224 36 -31 108 -85 159 -121 144 -101
189 -141 230 -200 53 -76 57 -99 23 -140 -25 -30 -31 -32 -74 -28 -134 13
-491 285 -1539 1170 -220 186 -274 236 -223 209 26 -14 42 -14 42 -1 0 5 -91
88 -202 184 -112 95 -232 203 -266 239 -61 61 -65 64 -93 54 -15 -6 -30 -9
-33 -6 -4 4 -9 239 -7 282 1 10 39 -15 131 -87z m4705 54 c4 -6 -7 -10 -25
-10 -18 0 -29 4 -25 10 3 6 15 10 25 10 10 0 22 -4 25 -10z m-1760 -250 c3 -6
-4 -10 -17 -10 -15 0 -38 15 -59 36 l-34 36 52 -26 c28 -14 54 -30 58 -36z
m441 -228 c35 -30 274 -345 274 -361 0 -16 -71 8 -118 41 -64 44 -221 255
-207 277 3 5 1 12 -5 16 -14 9 -13 42 3 48 19 8 20 8 53 -21z m-3428 -194 c26
-17 73 -59 104 -92 39 -41 58 -55 58 -43 0 12 41 -13 146 -92 125 -95 153
-121 199 -187 74 -108 199 -239 377 -397 137 -121 288 -225 288 -200 0 6 -13
34 -30 64 -29 52 -38 89 -22 89 19 -1 304 -248 502 -434 156 -148 273 -298
254 -327 -3 -6 -17 -9 -30 -6 -13 2 -24 1 -24 -3 0 -4 -19 -12 -42 -18 -40
-10 -47 -9 -98 20 -74 42 -250 164 -341 237 -75 60 -102 72 -59 26 34 -37 10
-31 -46 12 -27 20 -43 30 -36 23 38 -42 -18 -39 -103 5 -37 19 -101 57 -143
85 l-77 51 50 -43 c114 -99 397 -339 465 -394 68 -55 71 -59 49 -65 -30 -9
-277 -11 -306 -3 -13 4 -23 11 -23 18 0 22 -101 144 -217 261 -110 112 -291
274 -658 589 l-150 129 105 -107 c58 -59 213 -210 345 -334 339 -321 489 -466
532 -513 l36 -40 -54 6 c-214 27 -425 116 -591 252 -205 167 -362 449 -433
776 -20 92 -21 109 -9 114 13 5 13 8 -1 23 -18 20 -36 126 -60 352 -16 159
-18 198 -9 198 3 0 26 -14 52 -32z m5403 11 c10 -19 9 -20 -13 -14 -29 9 -31
11 -23 24 10 17 23 13 36 -10z m-1551 -173 c22 -29 40 -55 40 -58 0 -3 -27 1
-59 9 -52 13 -61 19 -70 46 -6 16 -11 43 -11 59 0 28 0 28 30 13 16 -8 48 -39
70 -69z m1725 -86 c-3 -5 -11 -10 -16 -10 -6 0 -7 5 -4 10 3 6 11 10 16 10 6
0 7 -4 4 -10z m-713 -70 c55 -41 59 -50 21 -50 -21 0 -35 10 -55 39 -45 64
-39 66 34 11z m-907 -121 c44 -31 113 -75 152 -99 64 -37 76 -49 98 -97 15
-30 25 -62 22 -71 -2 -11 -11 -1 -26 30 -17 36 -38 58 -83 88 -34 22 -63 38
-66 36 -4 -5 3 -16 62 -90 16 -20 26 -39 23 -42 -13 -14 -95 48 -143 107 -58
72 -144 193 -144 203 0 9 7 4 105 -65z m1085 -49 c0 -11 -4 -20 -10 -20 -5 0
-10 9 -10 20 0 11 5 20 10 20 6 0 10 -9 10 -20z m-100 -37 c0 -41 -13 -35 -24
10 -5 20 -3 27 9 27 11 0 15 -11 15 -37z m60 7 c0 -5 -4 -10 -10 -10 -5 0 -10
5 -10 10 0 6 5 10 10 10 6 0 10 -4 10 -10z m-720 -100 c12 -8 9 -10 -12 -10
-16 0 -28 5 -28 10 0 13 20 13 40 0z m310 -236 c0 -8 -6 -14 -12 -14 -13 -1 9
-23 66 -68 51 -40 21 -33 -37 8 -59 43 -75 64 -87 115 -4 16 -11 39 -15 50 -4
11 14 -1 39 -28 25 -27 46 -55 46 -63z m680 91 c-33 -19 -50 -18 -26 0 11 8
27 15 35 15 10 -1 7 -6 -9 -15z m-543 -111 c23 -6 43 -49 43 -93 0 -24 -3 -22
-55 29 -38 38 -51 56 -42 62 14 9 25 10 54 2z m185 -90 c18 -20 39 -43 46 -50
6 -7 12 -15 12 -19 0 -8 -40 22 -95 70 -35 31 -37 35 -18 35 13 0 36 -15 55
-36z m-2959 -488 c29 -19 67 -48 86 -64 l35 -30 -32 -16 c-43 -22 -57 -20 -70
9 -7 14 -30 50 -52 80 -22 30 -36 55 -30 55 6 0 34 -15 63 -34z m-283 -186
c30 -16 32 -19 17 -26 -13 -5 -27 1 -45 20 -31 30 -21 33 28 6z m177 -65 c-28
-25 -60 -31 -94 -18 -13 5 0 12 47 24 36 9 67 17 70 18 3 0 -8 -11 -23 -24z"/>
<path d="M1510 5586 c0 -2 8 -10 18 -17 15 -13 16 -12 3 4 -13 16 -21 21 -21
13z"/>
<path d="M2830 4234 c0 -8 75 -35 89 -32 8 2 -9 10 -37 20 -29 9 -52 14 -52
12z"/>
<path d="M4348 3313 c7 -3 16 -2 19 1 4 3 -2 6 -13 5 -11 0 -14 -3 -6 -6z"/>
<path d="M3193 2577 c4 -10 7 -24 7 -32 0 -7 9 -15 20 -18 19 -5 19 -4 -2 26
-28 42 -33 46 -25 24z"/>
<path d="M3234 2423 c9 -17 21 -35 27 -39 13 -8 -1 21 -26 51 -15 19 -15 18
-1 -12z"/>
<path d="M1010 2327 c0 -2 51 -51 113 -108 61 -57 101 -91 87 -75 -31 35 -200
190 -200 183z"/>
<path d="M1290 1995 c0 -1 30 -28 67 -61 l67 -59 -42 56 c-26 35 -52 59 -67
62 -14 2 -25 3 -25 2z"/>
<path d="M2530 956 c0 -12 213 -194 271 -232 97 -63 145 -69 166 -21 15 33 -2
79 -47 128 l-40 44 20 -54 c12 -30 20 -65 18 -78 -3 -21 -12 -16 -118 66 -66
52 -117 85 -121 79 -9 -14 -40 -2 -99 38 -27 19 -50 32 -50 30z"/>
<path d="M4185 2040 c17 -19 31 -37 33 -39 1 -2 4 -2 7 1 3 2 -12 20 -33 39
l-37 34 30 -35z"/>
<path d="M865 1490 c27 -27 51 -50 54 -50 3 0 -17 23 -44 50 -27 28 -51 50
-54 50 -3 0 17 -22 44 -50z"/>
<path d="M1190 1241 l-35 -6 45 -20 c25 -11 101 -55 170 -97 100 -63 115 -70
75 -36 -27 23 -79 70 -114 105 -66 64 -71 67 -141 54z"/>
<path d="M1825 870 c27 -27 51 -50 54 -50 3 0 -17 23 -44 50 -27 28 -51 50
-54 50 -3 0 17 -22 44 -50z"/>
<path d="M1980 911 c0 -24 74 -91 140 -125 39 -21 70 -35 70 -32 0 4 -72 61
-197 159 -9 6 -13 6 -13 -2z"/>
<path d="M2304 561 c8 -12 138 -73 143 -67 6 5 -13 16 -90 50 -32 14 -55 22
-53 17z"/>
<path d="M4660 1537 c0 -2 15 -16 33 -33 l32 -29 -29 33 c-28 30 -36 37 -36
29z"/>
<path d="M4530 6635 c19 -19 41 -35 49 -35 9 0 41 -14 71 -30 51 -27 53 -28
25 -5 -36 30 -157 105 -170 105 -5 0 6 -16 25 -35z"/>
<path d="M1858 6293 c7 -3 16 -2 19 1 4 3 -2 6 -13 5 -11 0 -14 -3 -6 -6z"/>
<path d="M1791 6261 c-17 -16 -31 -37 -30 -48 0 -16 1 -16 9 3 4 11 22 33 40
47 17 15 27 27 22 27 -6 0 -24 -13 -41 -29z"/>
<path d="M832 5647 c-25 -30 -51 -105 -51 -142 1 -38 2 -37 9 12 4 29 19 72
33 97 26 46 29 57 9 33z"/>
<path d="M657 5221 c-15 -10 -35 -29 -44 -42 -16 -23 -15 -23 13 2 16 14 40
33 54 42 13 10 20 17 15 17 -6 0 -23 -8 -38 -19z"/>
<path d="M585 5139 c-4 -6 -5 -12 -2 -15 2 -3 7 2 10 11 7 17 1 20 -8 4z"/>
</g>
</svg>
