<svg xmlns="http://www.w3.org/2000/svg" viewBox="0 0 385.31 404.56">
	<path d="M291.28,145,238,9a14.4,14.4,0,0,0-18.48-8l-136,53.28a14.24,14.24,0,0,0-8,18.48l53.68,136a14.24,14.24,0,0,0,18.48,8l135.6-53.28A14.24,14.24,0,0,0,291.28,145ZM143.44,201.12,91.44,68.8,223.76,16.72l52,132.4Z"/>
	<path d="M159.92,230.32H14.24A14.24,14.24,0,0,0,0,244.56V390.32a14.24,14.24,0,0,0,14.24,14.24H159.92a14.24,14.24,0,0,0,14.24-14.24V244.56A14.24,14.24,0,0,0,159.92,230.32Zm-1.76,158.16H16V246.32H158.16Z"/>
	<path d="M375,229.52l-140.8-37.44a14.48,14.48,0,0,0-17.44,10.4l-37.44,140.8a14.24,14.24,0,0,0,10.07,17.44h0l140.8,37.44a14.24,14.24,0,0,0,17.44-10.07h0L384.8,247A14.24,14.24,0,0,0,375,229.52Zm-42.32,152L195.28,345.44l36.56-137.36L369.2,244.64Z"/>
	<path d="M231.2,124.64a27,27,0,0,0-5.68-7.36l-40-42.16L180.8,70a24,24,0,0,0-3.92-3.28,11.21,11.21,0,0,0-4.8-1.84A13.52,13.52,0,0,0,161.2,69.2,11.11,11.11,0,0,0,159,73.84a28.2,28.2,0,0,0-.56,6.08v64.24q.24,3.6.4,5.52a11.94,11.94,0,0,0,.72,3.52,7.12,7.12,0,0,0,4.24,4,8,8,0,0,0,6.08,0,6.32,6.32,0,0,0,4.24-4,37.91,37.91,0,0,0,.64-9.36V132.4l31.6-12.4,7.52,8,3.44,3.44a17.67,17.67,0,0,0,3.28,2.72,6.88,6.88,0,0,0,3,1,7.53,7.53,0,0,0,3.44-.56,8,8,0,0,0,4.24-4.08A7.44,7.44,0,0,0,231.2,124.64ZM174,118.8l-1.12-36.32,24.32,27.2Z"/>
	<path d="M107,311.2a19.2,19.2,0,0,0,12.48-18.32,20,20,0,0,0-1.2-6.88,19.76,19.76,0,0,0-3.44-6,20.48,20.48,0,0,0-5.2-4.48,22.09,22.09,0,0,0-8-2.88,63.21,63.21,0,0,0-10.32-.72H64.8a10.72,10.72,0,0,0-8,2.4,11,11,0,0,0-2.4,8V345a11.12,11.12,0,0,0,2.32,8,10.56,10.56,0,0,0,8.08,2.48H90.32a89.7,89.7,0,0,0,11.12-1,34.43,34.43,0,0,0,8.8-2.24,21.52,21.52,0,0,0,9.68-8,22.88,22.88,0,0,0,3.6-12.64A20.4,20.4,0,0,0,107,311.2Zm-35.6-26.4H84.8a34.4,34.4,0,0,1,13.68,2.08,8,8,0,0,1,4.48,8,10.33,10.33,0,0,1-1.44,5.36,9.28,9.28,0,0,1-5.28,4.56,31,31,0,0,1-9.76,1.2H71Zm34.88,45.68q0,12.32-17.12,12.32H71l.4-24.32H88.8a24.88,24.88,0,0,1,13.28,2.88A10.08,10.08,0,0,1,106.32,330.48Z"/>
	<path d="M322.32,271.44a32.56,32.56,0,0,0-9.52-13,39,39,0,0,0-16-8,41.43,41.43,0,0,0-16-1.2,36.64,36.64,0,0,0-14.56,5,38.64,38.64,0,0,0-11.6,11A52,52,0,0,0,247.2,282a56.7,56.7,0,0,0-1.92,11.6,45.2,45.2,0,0,0,.72,11,41.45,41.45,0,0,0,3.2,9.92,33.27,33.27,0,0,0,6.08,8.8,33.85,33.85,0,0,0,8.48,6.32A53.17,53.17,0,0,0,275,333.92a38.57,38.57,0,0,0,15.44,1.2,31.45,31.45,0,0,0,12.24-4.64,31,31,0,0,0,8-7.2,22.08,22.08,0,0,0,4.08-8,7,7,0,0,0-.72-5.6,7.12,7.12,0,0,0-4.48-3.36,6.08,6.08,0,0,0-5.52.72,18.07,18.07,0,0,0-3.92,4.48,21.92,21.92,0,0,1-10.08,8,20.65,20.65,0,0,1-12.8,0,21.36,21.36,0,0,1-10.16-5,20.4,20.4,0,0,1-5-11.28,41.68,41.68,0,0,1,1.52-16,35.92,35.92,0,0,1,11.68-20.72,20,20,0,0,1,18.08-3.36,19,19,0,0,1,9.84,5.76,25.53,25.53,0,0,1,5.12,11,21.36,21.36,0,0,0,2.16,6.08,6.8,6.8,0,0,0,4.32,2.72,6.48,6.48,0,0,0,5.36-.88,7.29,7.29,0,0,0,3.28-4.4A19.76,19.76,0,0,0,322.32,271.44Z"/>
</svg>
