<svg xmlns="http://www.w3.org/2000/svg" viewBox="0 0 158.5 161.5">
	<path d="M135.5,120H58a5,5,0,0,1-4.83-3.72L26.15,14.5H5a5,5,0,0,1,0-10H30a5,5,0,0,1,4.83,3.72L61.85,110h70l16.91-54.48a5,5,0,1,1,9.55,3l-18,58A5,5,0,0,1,135.5,120ZM96,77.5h-.12a5,5,0,0,1-4.15-2.39L77.3,52.71a5,5,0,0,1,8.41-5.42L91,55.51V5a5,5,0,0,1,10,0V56.84l6.92-9.74a5,5,0,0,1,8.15,5.79L100.14,75.31A5,5,0,0,1,96,77.5Z"/>
	<path d="M73.5,161.5A16.5,16.5,0,1,1,90,145,16.52,16.52,0,0,1,73.5,161.5Zm0-26A9.5,9.5,0,1,0,83,145,9.51,9.51,0,0,0,73.5,135.5Z"/>
	<path d="M119.5,161.5A16.5,16.5,0,1,1,136,145,16.52,16.52,0,0,1,119.5,161.5Zm0-26A9.5,9.5,0,1,0,129,145,9.51,9.51,0,0,0,119.5,135.5Z"/>
</svg>
