<svg xmlns="http://www.w3.org/2000/svg" viewBox="0 0 512 337.46">
	<path d="M512,87.1a36,36,0,0,0-7.35-22.15L464.08,13A34.88,34.88,0,0,0,436.61,0a33.82,33.82,0,0,0-17.94,5L379.12,29.64c-4.16,2.65-11.29,4.47-18.18,4.43A33,33,0,0,1,347,31.33L308.26,12.57A46.66,46.66,0,0,0,288,8.31c-10.06,0-20.25,2.52-28.43,8.19l-4.52,3.17L239.7,12c-7.5-3.68-16.32-5.16-25.23-5.19a60.36,60.36,0,0,0-23.16,4.25L164.94,22.33c-4.29,1.86-11.12,3.08-17.91,3s-13.6-1.19-17.9-3L102.72,11.07A38.44,38.44,0,0,0,87.65,8.13a45.89,45.89,0,0,0-17.15,3.36A39,39,0,0,0,56,21.44L8,75.29a31.22,31.22,0,0,0,3,44.63l44.85,38.26-21.28,22.2a31.7,31.7,0,0,0,1.09,44.89l4.32,4.1A31.65,31.65,0,0,0,54.06,237,31.34,31.34,0,0,0,60,275.06h0l4.33,4.12a32.11,32.11,0,0,0,34.47,6.24,31.37,31.37,0,0,0,8.82,15.36l4.33,4.12a32,32,0,0,0,39.7,3.41,31.48,31.48,0,0,0,8.3,13.63l4.33,4.12A32.08,32.08,0,0,0,209.33,325l18.8-19.64L253.68,329a32.06,32.06,0,0,0,45.08-1.62l4.08-4.37A31.46,31.46,0,0,0,310,310.06l9.9,9.13A32.11,32.11,0,0,0,365,317.53l4.05-4.36a31.35,31.35,0,0,0,8.13-17.53,31.23,31.23,0,0,0,31.32-9l4.07-4.36a31.6,31.6,0,0,0,8.5-21.61,32.41,32.41,0,0,0-.87-7.12,31.62,31.62,0,0,0,19.14-9.69l4.08-4.37a31.74,31.74,0,0,0-1.66-44.89l-7.63-7L503,111.46A36.24,36.24,0,0,0,512,87.1ZM62,220.8a14.48,14.48,0,0,1-10-4l-4.32-4.1a14.43,14.43,0,0,1-.5-20.4l43.58-45.47a14.62,14.62,0,0,1,20.51-.49l4.31,4.11s4.46,6.59,4.47,10.46a14.36,14.36,0,0,1-2.58,8.16l-47,49A14.67,14.67,0,0,1,62,220.8Zm34.8,45.36a14.63,14.63,0,0,1-20.5.48L72,262.52h0a14.48,14.48,0,0,1-.49-20.4s58.09-60.46,58.58-61a14.55,14.55,0,0,1,20-.1l4.33,4.12a14.45,14.45,0,0,1,.49,20.41Zm47.61,25.71a14.61,14.61,0,0,1-20.5.48l-4.34-4.11a14.34,14.34,0,0,1-1.26-19.44l40.45-42.22a14.5,14.5,0,0,1,19.69.2l4.34,4.12a14.45,14.45,0,0,1,.49,20.4Zm76.86-4.46L196.74,313a14.62,14.62,0,0,1-20.5.48l-4.33-4.11a14.45,14.45,0,0,1-.49-20.4L196,263.37a14.63,14.63,0,0,1,20.51-.48l4.34,4.11a14.46,14.46,0,0,1,.48,20.4Zm213.24-69.49a14.29,14.29,0,0,1-3.86,9.81l-4.07,4.36a14.62,14.62,0,0,1-20.5.75l-68.54-63.38-11.85,12.69,73.36,68a14.44,14.44,0,0,1,.75,20.41l-4.05,4.36a14.61,14.61,0,0,1-20.49.75l-68.55-63.38-11.84,12.69,60.84,56.26a14.42,14.42,0,0,1,.59,20.2l-4.07,4.36a14.64,14.64,0,0,1-20.51.76L271,250.46h0l-11.82,12.71h0l.23.21,30.41,28.07a14.29,14.29,0,0,1,.26,19.76L286,315.59a14.59,14.59,0,0,1-20.46.74L239.1,291.81a31.26,31.26,0,0,0-6.27-37.33l-4.34-4.12a31.9,31.9,0,0,0-22-8.74c-.61,0-1.23.14-1.83.17,0-.14,0-.3,0-.44,0-8.35-9.86-23-9.86-23l-4.33-4.11a31.79,31.79,0,0,0-16.06-8.18,31.29,31.29,0,0,0-8-33.5l-4.33-4.12a32,32,0,0,0-22-8.75c-.92,0-1.83.19-2.74.27a31.61,31.61,0,0,0-9.76-22h0l-4.32-4.1a32.07,32.07,0,0,0-45.11,1.06L67.92,145.65,22.35,106.79a14,14,0,0,1-1.36-20L69.07,33a21.94,21.94,0,0,1,8-5.42,28.61,28.61,0,0,1,10.57-2.08A21.09,21.09,0,0,1,95.89,27l26.4,11.26c7.44,3.14,16.08,4.42,24.76,4.45s17.32-1.32,24.76-4.45L198.19,27c4.07-1.77,10.2-2.87,16.31-2.85,6.75,0,13.51,1.36,17.43,3.36L239,31,212.07,50A31.08,31.08,0,0,0,205,94.08h0l3.55,4.78a34.74,34.74,0,0,0,27.79,13.61,33.75,33.75,0,0,0,17.38-4.74l16.09-9.66a26.5,26.5,0,0,1,13.36-3.25c6,0,12.09,1.75,15.74,4.43l44.52,31.92a444.65,444.65,0,0,1,35,28.55l51.53,47.64A14.36,14.36,0,0,1,434.52,217.91ZM490,99.88l-68.65,75.91L390.23,147a458.6,458.6,0,0,0-36.66-29.91L309.06,85.15c-7.55-5.35-16.79-7.66-25.92-7.69a43.82,43.82,0,0,0-22.36,5.74L244.7,92.86a16.33,16.33,0,0,1-8.4,2.25,17.35,17.35,0,0,1-13.82-6.6l-3.54-4.77h0a13.79,13.79,0,0,1,3.16-19.63l47.58-33.43c4.11-3,11.43-5.07,18.39-5a29.47,29.47,0,0,1,12.6,2.51l38.74,18.76a50,50,0,0,0,21.55,4.49c9.63,0,19.37-2.14,27.4-7.07l39.57-24.61a16.44,16.44,0,0,1,8.72-2.39,17.55,17.55,0,0,1,13.72,6.36l40.57,51.91a18.89,18.89,0,0,1,3.69,11.51A19.25,19.25,0,0,1,490,99.88Z"/>
</svg>
