<svg xmlns="http://www.w3.org/2000/svg" viewBox="0 0 496 496">
	<circle cx="196" cy="188" r="12"/>
	<circle cx="300" cy="188" r="12"/>
	<path d="M248,296a64.07,64.07,0,0,0,64-64H296a48,48,0,0,1-96,0H184A64.07,64.07,0,0,0,248,296Z"/>
	<path d="M485.56,189.3,453.93,62.74A82.84,82.84,0,0,0,344.48,5.27L314.72,16.43c-41.08-21.52-92.38-21.52-133.46,0L151.5,5.27A82.83,82.83,0,0,0,42.07,62.74L10.44,189.3A39.93,39.93,0,1,0,80,216a39.79,39.79,0,0,0-11.12-27.54L115.12,129,136,134.25v42.56a39.9,39.9,0,0,0,2.51,78.64A112.25,112.25,0,0,0,192,328.85v8.29l-41.31,6.35A99.32,99.32,0,0,0,71.5,411.61L45.12,496H450.88L424.5,411.61a99.33,99.33,0,0,0-79.19-68.12L304,337.14v-8.29a112.25,112.25,0,0,0,53.49-73.4A39.9,39.9,0,0,0,360,176.81V134.25L380.88,129l46.24,59.44a40.05,40.05,0,1,0,58.44.83ZM40,240a24,24,0,1,1,24-24A24,24,0,0,1,40,240Zm80-24a24,24,0,0,1,16-22.53V232c0,2.24.21,4.42.34,6.63A24,24,0,0,1,120,216ZM409.24,416.38,429.12,480H367.06l-7.13-57-15.87,2,6.87,55H145.06l6.87-55-15.87-2-7.13,57H66.88l19.87-63.62a83.08,83.08,0,0,1,34.14-44.74c3.46,24.42,18.14,57.2,57.3,60.15C183.37,444.45,200.12,472,248,472s64.63-27.55,69.8-40.21c39.16-3,53.84-35.74,57.3-60.15A83.06,83.06,0,0,1,409.24,416.38ZM342.87,359.3A80.91,80.91,0,0,1,359.78,364c-1,12.86-7.44,52-47.78,52l-6.47.06-1.37,6.3c-.3,1.38-7.84,33.63-56.16,33.63s-55.86-32.26-56.16-33.57L190.55,416H184c-40.34,0-46.76-39.11-47.78-52a80.91,80.91,0,0,1,16.91-4.73l41.64-6.41C201.06,366.34,217.18,384,248,384s46.94-17.66,53.23-31.1ZM208,342.83v-6.34a110.25,110.25,0,0,0,80,0v6.34C286.62,347,278.22,368,248,368S209.4,347.1,208,342.83ZM344,232a96,96,0,0,1-192,0V168H344Zm32-16a24,24,0,0,1-16.34,22.63c.13-2.21.34-4.39.34-6.63V193.47A24,24,0,0,1,376,216Zm11.12-105L351,120H328v16h16v16H152V136H312V120H145l-36.1-9L55.77,179.26A39.71,39.71,0,0,0,40,176a39.54,39.54,0,0,0-10.12,1.46L57.58,66.62A66.85,66.85,0,0,1,145.9,20.26L182.54,34l3.23-1.81c38-21.18,86.49-21.18,124.46,0L313.46,34l36.65-13.74a66.84,66.84,0,0,1,88.3,46.38l27.7,110.83a38.13,38.13,0,0,0-25.88,1.81ZM456,240a24,24,0,1,1,24-24A24,24,0,0,1,456,240Z"/>
</svg>
