<svg xmlns="http://www.w3.org/2000/svg" viewBox="0 0 53.95 51.52">
  <path style="stroke-width: 2px;" d="M11.49,50.51a.93.93,0,0,1-.55-.18,1.2,1.2,0,0,1-.37-.91c-.09-1.62,2.77-15.19,2.82-16.07a1.7,1.7,0,0,0-.44-1.26C12.4,31.47,2.39,22.53,1.27,20.8a1.19,1.19,0,0,1-.24-1,.93.93,0,0,1,.75-.63c2-.29,15.32-2.11,16.11-2.34a1.84,1.84,0,0,0,1-.71c.29-.4,3.25-6.41,7.23-14.64A1.13,1.13,0,0,1,27,1a.93.93,0,0,1,.26,0,1.18,1.18,0,0,1,.57.48c.46.71,6.87,14.06,7.26,14.69a1.39,1.39,0,0,0,.94.65c.61.12.92.17,16.15,2.35a.93.93,0,0,1,.52,1.59C51.4,22,41.34,31.64,40.92,32.25a1.78,1.78,0,0,0-.33,1c0,.82,2.69,15.68,2.77,16.17a.93.93,0,0,1-.37.91.92.92,0,0,1-.73.16h0a1.08,1.08,0,0,1-.25-.09c-.1-.05-13-7.33-14.27-7.69a2.84,2.84,0,0,0-.76-.09,2.21,2.21,0,0,0-.73.14c-.91.35-13.89,7.42-14.35,7.65A1.09,1.09,0,0,1,11.49,50.51Z"/>
</svg>