<svg xmlns="http://www.w3.org/2000/svg" viewBox="0 0 59 60">
	<defs>
		<style>
			.cls-1 {
				fill: #ccc;
			}
		</style>
	</defs>
	<path class="cls-1" d="M58.71.29a1,1,0,0,0-1.41,0L53.59,4H30.3L1,33.51a3.53,3.53,0,0,0,0,5L21.5,59a3.53,3.53,0,0,0,5,0L55,29.69V5.41l3.71-3.71A1,1,0,0,0,58.71.29ZM53,28.87,25.07,57.55a1.53,1.53,0,0,1-2.16,0L2.45,37.09a1.53,1.53,0,0,1,0-2.17L31.14,6H51.59l-4.83,4.83a5,5,0,1,0,1.41,1.41L53,7.41ZM47,15a3,3,0,1,1-3-3,3,3,0,0,1,1.28.3l-2,2a1,1,0,1,0,1.41,1.41l2-2A3,3,0,0,1,47,15Z"/>
</svg>