<svg width="800" height="800" viewBox="0 0 400 400" fill="none" opacity="0.5" xmlns="http://www.w3.org/2000/svg">
	<g clip-path="url(#clip0)">
		<circle cx="6.5" cy="6.5" r="6" transform="translate(40 5)" stroke="#F9D4CE"/>
		<circle cx="6.5" cy="6.5" r="6" transform="translate(16 37)" stroke="#DCDBEA"/>
		<circle cx="6.5" cy="6.5" r="6" transform="translate(36 70)" stroke="#DBE8CF"/>
		<circle cx="6.5" cy="6.5" r="6" transform="translate(151 27)" stroke="#DCDBEA"/>
		<circle cx="6.5" cy="6.5" r="6" transform="translate(175 105)" stroke="#F9D4CE"/>
		<circle cx="6.5" cy="6.5" r="6" transform="translate(351 181)" stroke="#F9D4CE"/>
		<circle cx="6.5" cy="6.5" r="6" transform="translate(255 37)" stroke="#DAE7CE"/>
		<circle cx="6.5" cy="6.5" r="6" transform="translate(282 115)" stroke="#CEDDE5"/>
		<circle cx="6.5" cy="6.5" r="6" transform="translate(287 249)" stroke="#CEDDE5"/>
		<circle cx="6.5" cy="6.5" r="6" transform="translate(236 346)" stroke="#CEDDE5"/>
		<circle cx="6.5" cy="6.5" r="6" transform="translate(109 366)" stroke="#CEDDE5"/>
		<circle cx="6.5" cy="6.5" r="6" transform="translate(84 138)" stroke="#DCDBEA"/>
		<circle cx="6.5" cy="6.5" r="6" transform="translate(105 232)" stroke="#DAE7CE"/>
		<circle cx="6.5" cy="6.5" r="6" transform="translate(26 247)" stroke="#DCDBEA"/>
		<path d="M10.5 0H3.5L0 4.5L6 12H8L14 4.5L10.5 0Z" transform="translate(104 11)" fill="#DAE7CE"/>
		<path d="M10.5 0H3.5L0 4.5L6 12H8L14 4.5L10.5 0Z" transform="translate(132 92)" fill="#F9D4CE"/>
		<path d="M10.5 0H3.5L0 4.5L6 12H8L14 4.5L10.5 0Z" transform="translate(211 60)" fill="#F9D4CE"/>
		<path d="M10.5 0H3.5L0 4.5L6 12H8L14 4.5L10.5 0Z" transform="translate(278 280)" fill="#F9D4CE"/>
		<path d="M10.5 0H3.5L0 4.5L6 12H8L14 4.5L10.5 0Z" transform="translate(239 258)" fill="#DCDBEA"/>
		<path d="M10.5 0H3.5L0 4.5L6 12H8L14 4.5L10.5 0Z" transform="translate(35 182)" fill="#F9D4CE"/>
		<path d="M10.5 0H3.5L0 4.5L6 12H8L14 4.5L10.5 0Z" transform="translate(31.3362 131.847) rotate(43.9785)"
		      stroke="#F9D5CF" stroke-width="1.5"/>
		<path d="M10.5 0H3.5L0 4.5L6 12H8L14 4.5L10.5 0Z" transform="translate(107.333 283) rotate(43.9785)"
		      stroke="#DBE8D0" stroke-width="1.5"/>
		<path d="M10.5 0H3.5L0 4.5L6 12H8L14 4.5L10.5 0Z" transform="translate(280.333 369) rotate(43.9785)"
		      stroke="#DCDBEA" stroke-width="1.5"/>
		<path d="M10.5 0H3.5L0 4.5L6 12H8L14 4.5L10.5 0Z" transform="translate(165.333 361) rotate(43.9785)"
		      stroke="#DCDBEA" stroke-width="1.5"/>
		<path d="M10.5 0H3.5L0 4.5L6 12H8L14 4.5L10.5 0Z" transform="translate(305.502 303.117) rotate(38.7638)"
		      stroke="#CEDDE5" stroke-width="1.5"/>
		<path d="M10.5 0H3.5L0 4.5L6 12H8L14 4.5L10.5 0Z" transform="translate(61 299)" fill="#F9D4CE"/>
		<path d="M10.5 0H3.5L0 4.5L6 12H8L14 4.5L10.5 0Z" transform="translate(333 272)" fill="#DCDBEA"/>
		<path d="M10.5 0H3.5L0 4.5L6 12H8L14 4.5L10.5 0Z" transform="translate(315 343)" fill="#DAE7CE"/>
		<path d="M10.5 0H3.5L0 4.5L6 12H8L14 4.5L10.5 0Z" transform="translate(155 62)" fill="#DCDBEA"/>
		<path d="M10.5 0H3.5L0 4.5L6 12H8L14 4.5L10.5 0Z" transform="translate(200 21)" fill="#CEDDE5"/>
		<path d="M10.5 0H3.5L0 4.5L6 12H8L14 4.5L10.5 0Z" transform="translate(344 29)" fill="#CEDDE5"/>
		<rect width="11" height="11" transform="translate(115 166)" fill="#DAE7CE"/>
		<rect width="11" height="11" transform="translate(243 307)" fill="#DAE7CE"/>
		<rect width="11" height="11" transform="translate(193 382)" fill="#DAE7CE"/>
		<rect width="11" height="11" transform="translate(246 212)" fill="#CEDDE5"/>
		<rect width="11" height="11" transform="translate(270 335)" fill="#F9D4CE"/>
		<rect x="0.5" y="0.5" width="10" height="10" transform="translate(161 145)" stroke="#DAE7CE"/>
		<rect x="0.5" y="0.5" width="10" height="10" transform="translate(153 296)" stroke="#E2E1EC"/>
		<rect width="11" height="11" transform="translate(218 94)" fill="#DCDBEA"/>
		<path d="M0 22V13L9 15.5V6L18.5 8.5V0" transform="translate(270 74)" stroke="#F9D5D0" stroke-width="1.5"
		      stroke-linecap="round" stroke-linejoin="round"/>
		<path d="M0 22V13L9 15.5V6L18.5 8.5V0" transform="translate(327.052 42) rotate(55.1392)" stroke="#CEDDE5"
		      stroke-width="1.5" stroke-linecap="round" stroke-linejoin="round"/>
		<path d="M0 22V13L9 15.5V6L18.5 8.5V0" transform="translate(393.6 132.773) rotate(135.805)" stroke="#DAE7CE"
		      stroke-width="1.5" stroke-linecap="round" stroke-linejoin="round"/>
		<path d="M0 22V13L9 15.5V6L18.5 8.5V0" transform="translate(89.9993 164) rotate(89.5287)" stroke="#DAE7CE"
		      stroke-width="1.5" stroke-linecap="round" stroke-linejoin="round"/>
		<path d="M0 0L10 10M10 0L0 10" transform="translate(56 106)" stroke="#DDDCEA" stroke-width="1.5"
		      stroke-linecap="round" stroke-linejoin="round"/>
		<path d="M0 0L10 10M10 0L0 10" transform="translate(246 126)" stroke="#DAE7CE" stroke-width="1.5"
		      stroke-linecap="round" stroke-linejoin="round"/>
		<path d="M0 0L10 10M10 0L0 10" transform="translate(291.254 206) rotate(25.1784)" stroke="#DAE7CE"
		      stroke-width="1.5" stroke-linecap="round" stroke-linejoin="round"/>
		<path d="M0 0L10 10M10 0L0 10" transform="translate(64 256)" stroke="#F9D4CE" stroke-width="1.5"
		      stroke-linecap="round" stroke-linejoin="round"/>
		<path d="M0 0L10 10M10 0L0 10" transform="translate(120.07 202) rotate(0.39859)" stroke="#DAE7CE"
		      stroke-width="1.5" stroke-linecap="round" stroke-linejoin="round"/>
		<path d="M0 0L10 10M10 0L0 10" transform="translate(72.0696 382) rotate(0.39859)" stroke="#DAE7CE"
		      stroke-width="1.5" stroke-linecap="round" stroke-linejoin="round"/>
		<path d="M0 0L10 10M10 0L0 10" transform="translate(208.07 258) rotate(0.39859)" stroke="#CEDDE5"
		      stroke-width="1.5" stroke-linecap="round" stroke-linejoin="round"/>
		<path d="M0 0L10 10M10 0L0 10" transform="translate(314.07 383) rotate(0.39859)" stroke="#CEDDE5"
		      stroke-width="1.5" stroke-linecap="round" stroke-linejoin="round"/>
		<path d="M0 0L10 10M10 0L0 10" transform="translate(201 151)" stroke="#F9D4CE" stroke-width="1.5"
		      stroke-linecap="round" stroke-linejoin="round"/>
		<path d="M0 0L10 10M10 0L0 10" transform="translate(368.977 224.003) rotate(36.6782)" stroke="#DAE7CE"
		      stroke-width="1.5" stroke-linecap="round" stroke-linejoin="round"/>
		<path d="M0 0L10 10M10 0L0 10" transform="translate(335 88)" stroke="#F9D4CE" stroke-width="1.5"
		      stroke-linecap="round" stroke-linejoin="round"/>
		<path d="M5 0L0 13L14 11L5 0Z" transform="translate(119.62 60.9844) rotate(177.193)" stroke="#DFDEEB"
		      stroke-width="1.5" stroke-linejoin="round"/>
		<path d="M5 0L0 13L14 11L5 0Z" transform="translate(134.912 124.855) rotate(116.769)" stroke="#F9D4CE"
		      stroke-width="1.5" stroke-linejoin="round"/>
		<path d="M5 0L0 13L14 11L5 0Z" transform="translate(396.016 271.63) rotate(131.595)" stroke="#F9D4CE"
		      stroke-width="1.5" stroke-linejoin="round"/>
		<path d="M5 0L0 13L14 11L5 0Z" transform="translate(208.411 350.818) rotate(121.631)" stroke="#F9D4CE"
		      stroke-width="1.5" stroke-linejoin="round"/>
		<path d="M5 0L0 13L14 11L5 0Z" transform="translate(11.1895 341.821) rotate(-111.757)" fill="#DCDBEA"/>
		<path d="M5 0L0 13L14 11L5 0Z" transform="translate(292.785 166.007) rotate(119.036)" stroke="#DFDEEB"
		      stroke-width="1.5" stroke-linejoin="round"/>
		<path d="M5 0L0 13L14 11L5 0Z" transform="translate(151.842 341.574) rotate(165.29)" fill="#DCDBEA"/>
		<path d="M5 0L0 13L14 11L5 0Z" transform="translate(231.842 220.574) rotate(165.29)" fill="#F9D4CE"/>
		<path d="M5 0L0 13L14 11L5 0Z" transform="translate(396.882 13.0662) rotate(128.351)" fill="#CEDDE5"/>
		<path d="M5 0L0 13L14 11L5 0Z" transform="translate(194.432 216.874) rotate(109.083)" stroke="#DFDEEB"
		      stroke-width="1.5" stroke-linejoin="round"/>
		<path d="M5 0L0 13L14 11L5 0Z" transform="translate(30.5829 358.552) rotate(92.4343)" stroke="#DAE7CE"
		      stroke-width="1.5" stroke-linejoin="round"/>
		<path d="M5 0L0 13L14 11L5 0Z" transform="translate(390.62 75.9844) rotate(177.193)" stroke="#F9D4CE"
		      stroke-width="1.5" stroke-linejoin="round"/>
		<circle cx="4.5" cy="4.5" r="4.5" transform="translate(96 89)" fill="#DCDBEA"/>
		<circle cx="4.5" cy="4.5" r="4.5" transform="translate(169 256)" fill="#DAE7CE"/>
		<circle cx="4.5" cy="4.5" r="4.5" transform="translate(242 169)" fill="#DAE7CE"/>
		<circle cx="4.5" cy="4.5" r="4.5" transform="translate(7 209)" fill="#CEDDE5"/>
		<circle cx="4.5" cy="4.5" r="4.5" transform="translate(194 309)" fill="#CEDDE5"/>
		<circle cx="4.5" cy="4.5" r="4.5" transform="translate(345 370)" fill="#DCDBEA"/>
		<circle cx="4.5" cy="4.5" r="4.5" transform="translate(324 156)" fill="#DCDBEA"/>
		<circle cx="4.5" cy="4.5" r="4.5" transform="translate(284 8)" fill="#F9D4CE"/>
		<circle cx="4.5" cy="4.5" r="4.5" transform="translate(75 340)" fill="#F9D4CE"/>
		<path d="M0.252861 15.2312C-0.0804721 14.2312 -0.347139 11.9312 1.25286 10.7312C2.85286 9.53124 4.25291 10.5646 4.75293 11.2312C5.75293 12.3979 8.35293 14.3312 10.7529 12.7312C11.2529 12.0646 11.9529 10.3312 10.7529 8.73124C9.55293 7.13124 11.2529 5.73124 12.2529 5.23124C13.0863 4.56457 15.0529 3.83124 16.2529 6.23124C17.4529 8.63124 20.0863 8.56457 21.2529 8.23124C22.0863 7.89791 23.4529 6.43124 22.2529 3.23124C21.9196 2.56457 21.6529 1.03124 23.2529 0.231239C24.8529 -0.568761 26.2529 0.897906 26.7529 1.73124"
		      transform="translate(120.791 250.698) rotate(-11.0218)" stroke="#DDDCEA" stroke-width="1.5"/>
		<path d="M0.252861 15.2312C-0.0804721 14.2312 -0.347139 11.9312 1.25286 10.7312C2.85286 9.53124 4.25291 10.5646 4.75293 11.2312C5.75293 12.3979 8.35293 14.3312 10.7529 12.7312C11.2529 12.0646 11.9529 10.3312 10.7529 8.73124C9.55293 7.13124 11.2529 5.73124 12.2529 5.23124C13.0863 4.56457 15.0529 3.83124 16.2529 6.23124C17.4529 8.63124 20.0863 8.56457 21.2529 8.23124C22.0863 7.89791 23.4529 6.43124 22.2529 3.23124C21.9196 2.56457 21.6529 1.03124 23.2529 0.231239C24.8529 -0.568761 26.2529 0.897906 26.7529 1.73124"
		      transform="translate(365 379.115) rotate(-11.0218)" stroke="#DDDCEA" stroke-width="1.5"/>
		<path d="M0.252861 15.2312C-0.0804721 14.2312 -0.347139 11.9312 1.25286 10.7312C2.85286 9.53124 4.25291 10.5646 4.75293 11.2312C5.75293 12.3979 8.35293 14.3312 10.7529 12.7312C11.2529 12.0646 11.9529 10.3312 10.7529 8.73124C9.55293 7.13124 11.2529 5.73124 12.2529 5.23124C13.0863 4.56457 15.0529 3.83124 16.2529 6.23124C17.4529 8.63124 20.0863 8.56457 21.2529 8.23124C22.0863 7.89791 23.4529 6.43124 22.2529 3.23124C21.9196 2.56457 21.6529 1.03124 23.2529 0.231239C24.8529 -0.568761 26.2529 0.897906 26.7529 1.73124"
		      transform="translate(163 185)" stroke="#D0DEE6" stroke-width="1.5"/>
		<path d="M0.252861 15.2312C-0.0804721 14.2312 -0.347139 11.9312 1.25286 10.7312C2.85286 9.53124 4.25291 10.5646 4.75293 11.2312C5.75293 12.3979 8.35293 14.3312 10.7529 12.7312C11.2529 12.0646 11.9529 10.3312 10.7529 8.73124C9.55293 7.13124 11.2529 5.73124 12.2529 5.23124C13.0863 4.56457 15.0529 3.83124 16.2529 6.23124C17.4529 8.63124 20.0863 8.56457 21.2529 8.23124C22.0863 7.89791 23.4529 6.43124 22.2529 3.23124C21.9196 2.56457 21.6529 1.03124 23.2529 0.231239C24.8529 -0.568761 26.2529 0.897906 26.7529 1.73124"
		      transform="translate(314 227.243) rotate(-29.6695)" stroke="#D0DEE6" stroke-width="1.5"/>
		<path d="M0.252861 15.2312C-0.0804721 14.2312 -0.347139 11.9312 1.25286 10.7312C2.85286 9.53124 4.25291 10.5646 4.75293 11.2312C5.75293 12.3979 8.35293 14.3312 10.7529 12.7312C11.2529 12.0646 11.9529 10.3312 10.7529 8.73124C9.55293 7.13124 11.2529 5.73124 12.2529 5.23124C13.0863 4.56457 15.0529 3.83124 16.2529 6.23124C17.4529 8.63124 20.0863 8.56457 21.2529 8.23124C22.0863 7.89791 23.4529 6.43124 22.2529 3.23124C21.9196 2.56457 21.6529 1.03124 23.2529 0.231239C24.8529 -0.568761 26.2529 0.897906 26.7529 1.73124"
		      transform="translate(13.0446 283) rotate(27.5491)" stroke="#CEDDE5" stroke-width="1.5"/>
		<path d="M0 1L8.5 0V9L17 7.5" transform="translate(62.2738 45) rotate(8.13667)" stroke="#D4E0E6"
		      stroke-width="1.5"/>
		<path d="M0 1L8.5 0V9L17 7.5" transform="translate(324 127.061) rotate(-0.204531)" stroke="#DAE7CE"
		      stroke-width="1.5"/>
		<path d="M0 1L8.5 0V9L17 7.5" transform="translate(7 113.953) rotate(-40.1137)" stroke="#F9D4CE"
		      stroke-width="1.5"/>
		<path d="M0 1L8.5 0V9L17 7.5" transform="translate(44 224.953) rotate(-40.1137)" stroke="#CFDEE5"
		      stroke-width="1.5"/>
		<path d="M0 1L8.5 0V9L17 7.5" transform="translate(355.838 302) rotate(40.4448)" stroke="#CEDDE5"
		      stroke-width="1.5"/>
	</g>
	<defs>
		<clipPath id="clip0">
			<rect width="400" height="400" fill="none"/>
		</clipPath>
	</defs>
</svg>
