<svg xmlns="http://www.w3.org/2000/svg" viewBox="0 0 110 110">
	<defs>
		<style>
			.cls-1 {
				fill-opacity: 0;
			}

			.cls-2 {
				fill: none;
				stroke: #000;
				stroke-width: 5px;
			}
		</style>
	</defs>
	<rect class="cls-1" x="5" y="5" width="100" height="100"/>
	<path d="M49.79,35.76H64.15l-1.89,1.89H48.38V33.08a1.31,1.31,0,0,0-1.58-1.26H31.5a1.35,1.35,0,0,0-1.26,1.26v4.57H26.45c-3.15,0-3.84,3.68-3.79,5.52v3.94C31,44.46,41.7,44.43,46,44.75c2.84-3.63,9.78-3.58,12.15-2.84l-1.26,1.26a12.82,12.82,0,0,0-7.1.79,14.16,14.16,0,0,0-6.47,5.84,14,14,0,0,0-1.42,8.36L27.4,72.67A6.48,6.48,0,0,1,20.93,67V41.28c0-4,3.68-5.36,5.52-5.52H29V33.08c0-1.51,1.68-2.31,2.52-2.52H46.8c2.52,0,3,1.68,3,2.52Z"/>
	<path d="M83.08,35.76H77.4l-2.05,1.89H82.6a4.85,4.85,0,0,1,4.73,4.26v8.67c-4.54,1.51-17.67-.32-19.24-.63,0-1.1-1.37-2.31-1.89-2.84l-1.1.95c3.79,3.31,4.26,13.41-2.84,18.93C56.58,71.4,49.58,68.2,46.8,66l-6.47,6.62h42.9c3.66,0,5.31-3.79,5.68-5.68V41.28C88.91,37.37,85,36,83.08,35.76Z"/>
	<path d="M39.23,34.34c-4.92,0-6.36,1.26-6.47,1.89.16.63,1.67,1.89,6.47,1.89s6.52-1.26,6.78-1.89C45.8,35.6,44.15,34.34,39.23,34.34Z"/>
	<circle class="cls-2" cx="55" cy="55" r="52.5"/>
	<line class="cls-2" x1="88.75" y1="17.76" x2="17.77" y2="89.06"/>
</svg>
