<svg xmlns="http://www.w3.org/2000/svg" viewBox="0 0 22 19.45">
  <defs>
    <style>
      .cls-1 {
        fill-opacity: 0;
      }

      .cls-2 {
        fill: #4e50ac;
      }
    </style>
  </defs>
  <rect class="cls-1" width="22" height="19.45"/>
  <path class="cls-2" d="M13.56,4c-3,1.93-6.4,6-7.73,7.76-.56-1.57-2.16-4.48-4.12-3.56S-.13,10.42.17,11l1.67,3.69a15.73,15.73,0,0,0,3.22,4.45,2.28,2.28,0,0,0,3.48-1.53A32.8,32.8,0,0,1,12,10.72,46.78,46.78,0,0,1,15.5,6.39,74.08,74.08,0,0,1,21.81.67C22.32,0,21.68,0,21.29,0L19.62.55A50.39,50.39,0,0,0,13.56,4Z"/>
</svg>