<svg xmlns="http://www.w3.org/2000/svg" viewBox="0 0 396.02 11.85">
	<defs>
		<style>
			.b {
			fill: #0c8c4b;
			}
		</style>
	</defs>
	<g>
		<line style="fill: #fff;" x1="0.02" y1="5.92" x2="396.02" y2="5.92"/>
		<g>
			<path class="b" d="M386,5.88c.2,0,.5.06.75.1C386.08,6,385.74,6,386,5.88Z"/>
			<path class="b" d="M396,6.34A73,73,0,0,1,386.8,6C389.08,5.86,395.24,5.26,396,6.34Z"/>
			<path class="b" d="M385.59,4.13l3.21.32C386.92,4.74,387.26,4.23,385.59,4.13Z"/>
			<polygon class="b" points="386.76 5.14 386.59 5.54 384.88 5.15 386.76 5.14"/>
			<path class="b" d="M222.88,9.08c.33.17.54.36.38.6Z"/>
			<path class="b" d="M215.45,7.28c-.67-.06-1.13-.09-1.53-.11A7,7,0,0,1,215.45,7.28Z"/>
			<path class="b" d="M229.62,8.92,228.31,9A6.78,6.78,0,0,1,229.62,8.92Z"/>
			<path class="b" d="M312,7.4c1.23.29,2.39.55,3.27.73C312.91,8.43,312.7,7.78,312,7.4Z"/>
			<path class="b" d="M181.32,1.5l-.32.32C180.66,1.68,180.48,1.54,181.32,1.5Z"/>
			<path class="b" d="M213.67,2a.4.4,0,0,1-.18.42l-.38-.08Z"/>
			<path class="b" d="M234.85,8.27l.07,0,1.07.2A1.59,1.59,0,0,1,234.85,8.27Z"/>
			<path class="b" d="M170.9,1.06a5.21,5.21,0,0,1-1.3-.7C170.61.51,171.08.82,170.9,1.06Z"/>
			<path class="b" d="M213.74,7.18h0Z"/>
			<path class="b" d="M224.4,2.32c-.57-.05-1.1-.09-1.7-.16A3.84,3.84,0,0,1,224.4,2.32Z"/>
			<path class="b" d="M312,7.4l-1-.24A2.06,2.06,0,0,1,312,7.4Z"/>
			<path class="b" d="M377.43,6.6c-1,0-1.28-.22-1.48-.45A5.49,5.49,0,0,1,377.43,6.6Z"/>
			<path class="b" d="M2.56,8H2.15A1.54,1.54,0,0,1,2.56,8Z"/>
			<path class="b" d="M42.27,8.84a2.33,2.33,0,0,1,.53.25C42.46,9.18,42.27,9,42.27,8.84Z"/>
			<path class="b"
			      d="M78.85,1.12c-2.59.46-5.27-.48-7.53-.53l.77.39L69.81.66l0,.57C66.08,1,61.41,1.54,60,.64l.44.9-4-.72,2.29.61C54.28,1.63,47.47.93,46.51.93l.4.34a5.24,5.24,0,0,1-2.08-.16l.59.5c-6.76-.14-8.6,1-16.14.47-2.06.12,1.14.16,1.17.45a9.7,9.7,0,0,1-4.33-.21c.6.79,3.78.55,1.36,1.18-1.71-.39,1.17.73-1.85.58l-1.18-1c-1.68.18-.34.79-3,.69-3-.44,3.71-1.15-1.17-1.3-2.45.07-5.15,2.34-9.89,1.8C6.32,4.8,12.56,5.84,6.9,5.58l3.62.66c-.94.29-.35.79-2.8.58a9.91,9.91,0,0,0-3.61-.95C9.41,6.65-.53,7,4.4,8L2.56,8c.23,0,.29.14.17.21L.28,8.27c1.51.22,5.09.31,3.43,1.06L.17,9.52c.94.56-.35.79-.15,1.25l10.41,1.08c-.41-.34-1.91-.56-1.35-.9,2.78-.3,2.27.61,4.88.14l-1.15-.45c.21.17.57.22,0,.28-.91.29-1.32,0-1.32-.33.91-.57,3.55-.19,4.33.21,3.38-.07.7-1,1.44-1.2,1.75,1,5.64,0,7.74.42l-1.34-.62A13.83,13.83,0,0,1,30,9.5L29.46,9c3.58.1,5.36-1.61,8.08.19l-.38-.34c1.47-.16,3.7-.54,5.11,0,0-.21.28-.47.88-.54.8.69,2.32.17,4.49,0-1.44-.18-1-1.08-2.49-1.3,3.34-.92,3.06,1,5.87,1,1.68-.46-1.51-.5-1.91-.84,4.33.49,8.91-2.08,11.64-.28l-1.86.57c1.72.39,2.66.38,2.45.22a1,1,0,0,1-.94-.28c5.2-.93,8.14,1.32,13.39,1-.39-.34-1.14-.45-1.17-.73C75,7.31,75,9.4,78.87,8.7l-.77-.39c1.3-.23,2.26.33,2.09.44.1-1.53,8.27.07,11-1.92,1.91.84,7.39,1.49,9.07,1C102.66,7,98.13,6.86,99,6c1.88,0,2.87.84,5.67.54,0,.85-5.54,1.72-.27,2.21l.74-.46a7.71,7.71,0,0,1-2.06.12c-1.52-.5.91-.57,1.27-.8l5.66.26c.41.9-3,.69-3.32.92,4.48-.19,9.87-1.52,14-.91l-.39-.34c5.31.77,3.1-1.65,7.33-.2,2.23-.24-.8-1,2.57-1,1,0,.39.34.22.45,4.14.32,1.82-.86,5.64,0l-.82-1c4.55.66,9.33,2.33,13.26,1.92-.24-.74-2.67-.67-3.64-1.23,5.33,1.33,12.79.17,17.72.88-1.47.63,2.33,1.46-.82,2-.82-1-2.3-.33-4-.43,2.73,2.08,11.42-1,12.26.79L170.8,9c.76.11,2.67.67,1.35.9l5.44-.48c-1.91-.56-5.93-1.84-7.2-1-1.55-.78,2.23-.52.86-1.42,3.64,1.23,2.24-.52,6-.25-1.7,1.07,3.75,1.45,3.58,2a15,15,0,0,1,5,.66c2.18.1,7.18-.76,10.67-.39-1.32-.33-3.42-.78-3.26-1.46,1.71.39,3.6.38,3.92-.41-6.09-1.45-2,1.82-7.47.88-1.36-.9-2.87-1.12-5.71-1.39,1.29-.52.72-.74,1.26-1.37,3.47,1.91,9,.18,13.58,1.13,1.91.56.47,1.75,4.81,2l-3.73.58c4.1-.53,1,.56,4.35.77L202.93,9a7.92,7.92,0,0,1,4,.44l-1.75-1c1.12-.12,3.18-.24,3.21.32.29-.23.39-.42.39-.58a4,4,0,0,0,2.05.23c-.77-.11-1.32,0-1.33-.33,5,.23,1.16-1,4.25-.94-.49-.22.39-.5,1.5-.61-.07,1.5,6,1.7,7.66,2.53l0,0,4.17.6c-.85-.12.07-.53,1.28-.69h-.2c1.32-.23-1.57-1.63,2.4-1.2l2.09.44c-.37-.05,0-.28.18-.4l2.15.41c3.29-1.4,6.21.79,10.08.1-1.12.12-2.82,0-2.09-.44a5.07,5.07,0,0,1,2.46.22l-.19-.17,7.37.93c-.6-.51-4.72-.54-2.88-1.12,1.09-.69,3.21,0,4.53.09-.17.4-2.61.75-.14,1,.3-.2,2.65-.61,1.54-.89,2.53.4,6.19.65,8.45,1.35.72-.17-.41-.34-.79-.39l-.18.11c-1.52-.22-.23-1-3.22-.61-.25-1.3,4.31-.36,6.93-.54L262.61,7c7-1.79,16.54.15,23.51.17-2,.41-3.76,0-3.51,1a77.53,77.53,0,0,0,8.08.47l-.37-.05c2.23-.52,5.28.48,6.75-.43-1-.56-3.17.53-3.22-.61l5.45.09c-1.71-.67-5.45-.09-7.53-.25-1.5.06,3,.16,2.3.9-5.09,0-6.25-.76-8.75-1.83-1.52-.79,2.22-.8,3.17-.81a30.68,30.68,0,0,0,13,1.19L304.27,6c2.5.78,1.44,2.31,5.95,2.12l-1.35-.62A8.74,8.74,0,0,1,311,7.16c-1.94-.47-4-1-5.78-1.48,2.57-1.31,7.37.65,11.15.91-.2-.17-1.51-.22-1.91-.55,5.63-.31,11.52,1.25,15.87,1.45,1.84-.57-3.61-.38-2.72-1.23,2.29.33,4.87-.42,5.48.37-1-1.13,5.25-.08.88-1.14,8.24-.49,17.31.54,25.63,1.18-.4-.34-.4-.62-.05-.85-2.82,0-7-.31-8.52-1.09,1.85-.58,4.38.77,4.91.43-.95-.28-2.82-.27-2.85-.84,2.41-.63,3.76.26,5.46.37l-.92.29c5.29.77,2.92,2,8.54,1.66,2-.69,0-.56-.05-1.41,1.32.33,5.59-.59,7,.31l-3.4.07c2.38.24,4.63.24,6.28.53a1.12,1.12,0,0,0-.81-.44c1.89.27,4.32.2,5.29.77l.53-.91c-1.13.4-4.5.47-5.07,0,.32-.8,3.74-.3,5.23-.36-6.59-.25-6.67-1.67-12.25-1.08l.94.28c-3.47.69-7-.45-10.09-.42.86-.19,1-.52.63-.67-6.73.71-13.35.17-21,.6L337,3l-.14.68c-3.75.3-.81-1-3.23-.89.92,0,.75.11.94.28-4.36-.77-2.42.63-4.86.42,1.16.73,4.71.26,3.62,1.23-4.35-.77-11.1-.34-11.74-2-8.07.66-18.07-.37-24.85-.51-.92.29.58.23.22.45-2.68-.95-9,.66-9-.19a4.57,4.57,0,0,0-2.19,1.08,35,35,0,0,0-6-.72l1.6.23-.17.11-2.27-.33.08-.05c-5.44-.24-11.73,0-16.67-.95,2.84.55-.72,1,.63,1.36-2.51-1.35-8.53-1.38-13.41-1.24,0,.28-.36.51.22.73L247,2.16l.37.34c-5.07.25-10.58-1.25-13.93-.61,2.07.16,2.08.44,2.29.9-3.63,0-7.05,0-11.29-.46.23.08.37.18.38.28a15.66,15.66,0,0,1-3.58-.38L221,2.9c-2.17-.31-5,0-7.55-.51-1,.75-6.24-.69-9.22-.38-1.14-.16,2.48.78-.71.74-.45-1.47-4.15,0-4.4-1.62l-2.79.58-.62-.79c-2.37,1.48-3.61-.66-7.14-.19.19.17.56.23.38.34C187.86.91,185.23.8,187.27.4c-1.88,0-8.28-.36-5.41.48-.21-.45,2.42-.07,3.56.1-.15.68-3,.41-3.68,1.15a6,6,0,0,0-.73-.3l-.4.42c-3.53-.75-7.13-.21-9.7-1.17-.15.21-.77.37-2,.32l-.05-.85-3.76,0,1.76,1.24c-4.12.25-7-1.16-10.41-1.37-.87,1.42-6.61-.54-9.55.72l2.65.38c-5.66-.26-6.56.6-11.83.11a92.93,92.93,0,0,0,11-1.35c-6.54.59-11.31-.8-17.3,0,.4.34,1.9.55.44.9-1.17-.73-5.64,0-4.76-.83-1.86.29-2.18,1.09-3.32,1.2l-6.24-1,.19.17c-10.62,2-19.82-1.32-30.47-.48l.21.45L84.82,0c2.09.44-.9.57-1.07,1L76.93,0C76.77.4,77.17,1.3,78.85,1.12Zm89.87.38,1.62.06a2.67,2.67,0,0,1,1,0l-1,0C169.5,1.68,168.89,2,168.72,1.5ZM317.66,3.14c.78.39-1.12.12-1.66.18l2.63.1C319,3.19,318,3.19,317.66,3.14ZM168.81,7l-.9.57-1.15-.45ZM145.88,7l2.29.33-.19.11-2.26-.33ZM120.41,2.46a4.21,4.21,0,0,1,.44.11,2.47,2.47,0,0,1-.44-.11c-1.76-.41-2.47.61-3.9-.38C118.27,1.24,119.4,2.11,120.41,2.46Zm40.28,0a6.14,6.14,0,0,0,1.7.11c-.4-.34-1.93-.84-.81-1,.78.39,3.4.49,3.44,1.06C162.74,2,161.13,3.63,160.69,2.45Zm54,.37-.57.06,2.1.44Zm9.8.58c1.17.73,4.16.6,6.24.76.54-.63-1.57-1.35-4-1.28C223.83,2.32,225.61,3.84,224.46,3.4Zm-81.38.15.58.5-.55.06,2.26.33c-3,.69-5.1-.6-6.62-.82C140.09,3.67,143.72,4.9,143.08,3.54Zm102.27.21c2.09.44,5.86,1,5.51,1.5.13-1-2.89-1.4-3.83-1.4A6.06,6.06,0,0,1,245.35,3.75Zm-.11,1.81c-3-.44-3.24-.89-5.55-1.79,3-.41,3.82.83,3.46,1.34,2.09.44,1.68-.18,2.8-.3Zm-3.15-2.7L240.86,3c-1.46.4-1.76,1.49-3.81.4l3.81-.4A3.91,3.91,0,0,1,242.09,2.86Zm25.48.05-1.24-.33c1.23,0,1.37.18,1.24.33l1,.28C265.91,3.54,267.3,3.21,267.57,2.91Zm-19.43.26-3.58-.1C244.77,3.53,247,3.29,248.14,3.17Zm18.63.59c-1.51.06-5.44.2-4.9.13C262.23,3.39,265.81,3.49,266.77,3.77Zm79,1.33-2.26,0,1.09-.68Zm-26.47.52.56-.34,1.31.05Zm-24.41,0c.12-.15.05-.33-.15-.49a1.8,1.8,0,0,1-.85-.29,1.36,1.36,0,0,1,.85.29,8.58,8.58,0,0,0,3.1-.14c-.39-.34-1.9-.27-2.48-.5,2.23-.8,7.25,1.61,5.81-.71.95.28,4.18.89,3.06,1.29a48.93,48.93,0,0,0-9.34.54,1.06,1.06,0,0,1-.77.24A2.8,2.8,0,0,1,294.89,5.67Zm-32.9.5a5.76,5.76,0,0,1-1.51-.2c-.79-.17-1.4-.43-1.16-.75,1.93.28.7.54,1.16.75A9.23,9.23,0,0,0,262,6.17Zm-5.82.14,3,.44-1.52-.5,4.55.94C259.62,7.65,256.59,6.93,256.18,6.31Zm-1.06.44-.62-.55,1,.56h-.33l.14.13-5.09-.32Zm-52-1.11c-1.91,1.91,4.5,1.35,5.49,2.27.21-.64,2.14-1.63-2.83-1.61,4.29-.64,2.69,1.23,5.25-.36a23.39,23.39,0,0,1-4.9-.43l2.42-.07C207.21,4.27,204.85,6,203.15,5.64ZM177,5.93l-3.19,0,3,.16ZM98.3,6.47c.23.45-3.88,1.26-4.86.42C95.51,6.76,97.77,6.81,98.3,6.47ZM64.47,6.34l3.58.38c-.69,1-3.2,0-4.88.14C62.59,6.35,63.91,6.68,64.47,6.34Zm-23.31,0L40,6.17l1.2,1Zm1.57,1.35c-.72.46,1.73.67,2.31.61Zm-21,.89,1.49-.06-1.35-.9ZM24.1,7.52c.35.65.2,1.52,3.64,1.08.14-.68-.79-.67.48-1.47a8.69,8.69,0,0,0-2.63.18c.77.11,1.68-.18,1.89.27a7.61,7.61,0,0,1-3.39-.07A1,1,0,0,0,23.34,7C23.35,7.19,23.64,7.38,24.1,7.52ZM36.57,6.8a3.49,3.49,0,0,0,1-.29l.21.17a1.37,1.37,0,0,1-1.23.11c-.5.09-1.08.17-1.67.24-.38.57,2,1,2.6,1.28C36.37,8.16,35.4,7.6,33.91,8c.2.17,0,.28.95.28l-2.05.13c-2.35-.8-.11-1,2.09-1.31.07-.13.24-.26.65-.4A2,2,0,0,1,36.57,6.8ZM20.07,5.52l1.12.16c.58.22.21.45.41.62C20.29,6.26,18.57,5.87,20.07,5.52Zm67.47-.2c-.75.17,1,.85,2.66.67l-.89.85c0-.56-3.41-.49-3.79-.55C84.92,5.51,86.23,5.84,87.54,5.33Zm78.38,0c.61,1.07,4.9.43,5.85.71C169.54,6.25,164.46,6.5,165.92,5.31Zm7.44-.44c1.17,0,1.51-.09,1.39.45.57.22,1.5-.06,2.07.16-2.29.47-2.14-.38-3.46-.61-.31,0-.65,0-1.09,0A4.37,4.37,0,0,1,173.36,4.87ZM127.55,4.8,126,4l-2.44.07ZM101.35,3.4c.2.45-2.6.46-3.18.24.18.59,2.06.52,3.55.58a4.24,4.24,0,0,0,1,.08c-.29,0-.62-.06-1-.08-.56-.14-.17-.44-.17-.65l.74-.17-2.07-.16ZM55.27,2.76a5,5,0,0,1-3,.13A6.87,6.87,0,0,1,55.27,2.76Zm60,.12c-2.82.3,1.35.9-.49,1.19L116.22,4c-2.4.63-1.71-.67-3.4-.49l1.13-.12c.89-.57-1.73-.39-1.94-.84C113.32,2.32,116.35,2.76,115.23,2.88Zm-62.61-.5c-2.79.58-2.3-.61-4-.72C50.85,1.14,50.53,2.22,52.62,2.38ZM97.48,1.15,97.65,1,95.39.71l-.18.11Z"/>
			<path class="b" d="M49.15,8.33a6.55,6.55,0,0,1-1.52,0A13.55,13.55,0,0,1,49.15,8.33Z"/>
			<path class="b" d="M180.2,8.92c.06-.15.31-.23.63-.29C180.79,8.72,180.63,8.82,180.2,8.92Z"/>
			<path class="b" d="M185.66,9.29h.21l.17.05Z"/>
			<path class="b" d="M375.78,7.34c1.17.73-1.13.12-2.07.12C374.65,7.46,375,6.95,375.78,7.34Z"/>
			<path class="b" d="M368.38,6.13a8.19,8.19,0,0,0,2.32.42A6,6,0,0,1,368.38,6.13Z"/>
			<path class="b" d="M374.42,6.44a22.1,22.1,0,0,1-3.71.11A16.87,16.87,0,0,1,374.42,6.44Z"/>
			<path class="b"
			      d="M348.47,6.33a9.7,9.7,0,0,0,3.4.21c-4.87.42,1,.84,1.39,1.18C350.22,7.57,350.2,7,348.47,6.33Z"/>
			<path class="b" d="M342,6.11A8.64,8.64,0,0,0,343.37,6,4.24,4.24,0,0,1,342,6.11Z"/>
			<path class="b"
			      d="M340.21,6.54a6.08,6.08,0,0,1-3.05-1c2-.37,3.34.44,4.86.57C340.82,6.12,339.66,6.06,340.21,6.54Z"/>
			<path class="b" d="M288.27,9c.39.06,1.32.05,1.34.33h-2.82C285.66,9.17,287.7,9,288.27,9Z"/>
			<path class="b" d="M277.86,7.62c-2.26,0-1.08.68-2.22.52l.13-1Z"/>
			<path class="b" d="M279.11,2.75l.67.1-.76,0Z"/>
			<path class="b" d="M267,8.58l1.56,1.07C266.67,9.37,266.64,8.52,267,8.58Z"/>
			<polygon class="b" points="258.41 9.3 259.73 9.63 255.59 9.31 258.41 9.3"/>
			<polygon class="b" points="248.04 8.78 247.68 9.01 244.84 8.73 248.04 8.78"/>
			<path class="b" d="M135.23,7.88c-.43-.9,4.09-.53,5.41-.76C139.74,8.26,137,6.74,135.23,7.88Z"/>
			<path class="b" d="M53.09,7.92l4.32.21C54.06,8.48,56.47,8.13,53.09,7.92Z"/>
		</g>
	</g>
</svg>
