<svg xmlns="http://www.w3.org/2000/svg" viewBox="0 0 34.16 32.2">
  <defs>
    <style>
      .a {
        fill-opacity: 0;
      }
    </style>
  </defs>
  <g>
    <rect class="a" x="1.06" y="1.1" width="32" height="30"/>
    <path d="M13.18,25.8H13A13,13,0,0,1,0,12.91,13,13,0,0,1,13,0h.18a13,13,0,0,1,13,12.89A13,13,0,0,1,13.18,25.8Zm-.08-2.2h.08A10.84,10.84,0,0,0,24,12.89,10.84,10.84,0,0,0,13.18,2.2H13A10.84,10.84,0,0,0,2.2,12.91,10.84,10.84,0,0,0,13,23.6h.08Z"/>
    <path d="M33.06,32.2a1.09,1.09,0,0,1-.74-.29L22,22.47a1.1,1.1,0,1,1,1.48-1.62L33.8,30.29a1.1,1.1,0,0,1-.74,1.91Z"/>
  </g>
</svg>